<svg width="33" height="41" viewBox="0 0 33 41" fill="none" xmlns="http://www.w3.org/2000/svg">
<g clip-path="url(#clip0)">
<path d="M29.2969 15.6729H3.70269C3.29844 15.6729 2.97119 15.9981 2.97119 16.3999C2.97119 16.8017 3.29844 17.127 3.70269 17.127H29.2969C29.7012 17.127 30.0284 16.8017 30.0284 16.3999C30.0284 15.9981 29.7012 15.6729 29.2969 15.6729Z" fill="white"/>
<path d="M29.2969 22.9424H3.70269C3.29844 22.9424 2.97119 23.2676 2.97119 23.6694C2.97119 24.0712 3.29844 24.3965 3.70269 24.3965H29.2969C29.7012 24.3965 30.0284 24.0712 30.0284 23.6694C30.0284 23.2676 29.7012 22.9424 29.2969 22.9424Z" fill="white"/>
<path d="M3.70269 9.85892H29.2969C29.7012 9.85892 30.0284 9.53365 30.0284 9.13185C30.0284 8.73005 29.7012 8.40479 29.2969 8.40479H3.70269C3.29844 8.40479 2.97119 8.73005 2.97119 9.13185C2.97119 9.53365 3.29844 9.85892 3.70269 9.85892Z" fill="white"/>
</g>
<defs>
<clipPath id="clip0">
<rect width="33" height="41" fill="white"/>
</clipPath>
</defs>
</svg>
