<svg width="18" height="27" viewBox="0 0 18 27" fill="none" xmlns="http://www.w3.org/2000/svg">
<path fill-rule="evenodd" clip-rule="evenodd" d="M8.50029 2.43018C8.8223 2.43018 9.13113 2.5581 9.35883 2.78579C9.58653 3.01349 9.71445 3.32232 9.71445 3.64433V25.4992C9.71445 25.8212 9.58653 26.13 9.35883 26.3577C9.13113 26.5854 8.8223 26.7133 8.50029 26.7133C8.17828 26.7133 7.86945 26.5854 7.64175 26.3577C7.41405 26.13 7.28613 25.8212 7.28613 25.4992V3.64433C7.28613 3.32232 7.41405 3.01349 7.64175 2.78579C7.86945 2.5581 8.17828 2.43018 8.50029 2.43018Z" fill="white"/>
<path fill-rule="evenodd" clip-rule="evenodd" d="M7.64101 0.356704C7.75379 0.243634 7.88778 0.153925 8.03529 0.0927162C8.18279 0.031507 8.34093 0 8.50063 0C8.66034 0 8.81847 0.031507 8.96598 0.0927162C9.11349 0.153925 9.24747 0.243634 9.36026 0.356704L16.6452 7.64165C16.8732 7.86963 17.0013 8.17885 17.0013 8.50127C17.0013 8.82369 16.8732 9.13291 16.6452 9.36089C16.4172 9.58888 16.108 9.71696 15.7856 9.71696C15.4632 9.71696 15.1539 9.58888 14.926 9.36089L8.50063 2.93315L2.07531 9.36089C1.84733 9.58888 1.53811 9.71696 1.21569 9.71696C0.89327 9.71696 0.584054 9.58888 0.356068 9.36089C0.128082 9.13291 0 8.82369 0 8.50127C0 8.17885 0.128082 7.86963 0.356068 7.64165L7.64101 0.356704Z" fill="white"/>
</svg>
