<svg width="1200" height="628" viewBox="0 0 1200 628" fill="none" xmlns="http://www.w3.org/2000/svg">
<rect width="1200" height="628" fill="#F5A899"/>
<path d="M262 349.1H251.2V343.1H299.5C342.1 343.1 372.1 319.1 372.1 284.9C372.1 251.9 343 230 299.2 230H202V238.7L208.9 239.3C223 240.5 230.2 247.7 230.2 261.5V408.5C230.2 422.3 223 429.5 208.9 430.7L202 431.3V440H290.2V431.3L283.3 430.7C269.2 429.5 262 422.3 262 408.5V349.1ZM262 332.6V248.3H251.2V242.3H295.9C322.9 242.3 338.8 258.8 338.8 286.1C338.8 314.3 321.7 332.6 295.9 332.6H262ZM498.639 375.2L513.039 409.4C518.439 422.3 512.439 429.5 501.339 430.7L496.239 431.3V440H571.539V431.9C558.339 428.9 552.039 422.3 546.339 409.1L465.639 220.1H465.039L384.939 406.7C378.639 421.7 368.739 429.2 358.839 431.9V440H420.039V431.3L414.939 430.7C400.239 428.9 394.539 419.9 402.939 400.4L416.139 369.2H507.039L509.439 375.2H498.639ZM456.339 273.2L492.039 358.7H420.639L456.339 273.2ZM770.35 440L779.95 365.3H770.05L764.95 383.6C756.55 413.9 741.55 427.7 716.95 427.7H649.45V421.7H660.25V261.5C660.25 247.7 667.45 240.5 681.55 239.3L688.45 238.7V230H600.25V238.7L607.15 239.3C621.25 240.5 628.45 247.7 628.45 261.5V408.5C628.45 422.3 621.25 429.5 607.15 430.7L600.25 431.3V440H770.35ZM896.186 443.3C946.886 443.3 979.286 408.8 979.286 355.1V264.8C979.286 249.5 986.186 241.4 1000.59 239.6L1007.49 238.7V230H934.886V238.7L941.786 239.6C956.186 241.4 963.386 249.8 963.386 264.8V351.2C963.386 396.5 940.886 424.7 904.286 424.7C871.586 424.7 850.286 401.3 850.286 365V261.5C850.286 247.7 857.486 240.5 871.586 239.3L878.486 238.7V230H790.586V238.7L797.486 239.3C811.586 240.5 818.786 247.7 818.786 261.5V371C818.786 415.4 848.786 443.3 896.186 443.3Z" fill="white"/>
<path d="M557.02 474.38C557.02 475.68 556.83 476.89 556.45 478.01C556.09 479.13 555.55 480.04 554.83 480.74C554.11 481.42 553.19 481.76 552.07 481.76C551.17 481.76 550.44 481.5 549.88 480.98C549.32 480.44 549.01 479.74 548.95 478.88H548.86C548.44 479.8 547.85 480.51 547.09 481.01C546.33 481.51 545.44 481.76 544.42 481.76C542.92 481.76 541.76 481.28 540.94 480.32C540.14 479.36 539.74 478.02 539.74 476.3C539.74 475.02 540 473.88 540.52 472.88C541.06 471.86 541.8 471.06 542.74 470.48C543.7 469.9 544.82 469.61 546.1 469.61C546.9 469.61 547.67 469.68 548.41 469.82C549.15 469.94 549.79 470.09 550.33 470.27L550.06 475.49C550.04 475.85 550.02 476.2 550 476.54C550 476.86 550 477.16 550 477.44C550 478.52 550.18 479.29 550.54 479.75C550.92 480.21 551.46 480.44 552.16 480.44C552.92 480.44 553.55 480.18 554.05 479.66C554.55 479.12 554.92 478.39 555.16 477.47C555.42 476.55 555.55 475.51 555.55 474.35C555.55 472.45 555.17 470.81 554.41 469.43C553.65 468.03 552.57 466.95 551.17 466.19C549.79 465.43 548.15 465.05 546.25 465.05C543.97 465.05 542 465.52 540.34 466.46C538.68 467.4 537.4 468.73 536.5 470.45C535.6 472.15 535.15 474.16 535.15 476.48C535.15 479.64 535.98 482.1 537.64 483.86C539.3 485.6 541.66 486.47 544.72 486.47C545.82 486.47 546.91 486.35 547.99 486.11C549.07 485.87 550.06 485.57 550.96 485.21V486.65C550.1 487.01 549.14 487.29 548.08 487.49C547.04 487.71 545.92 487.82 544.72 487.82C542.42 487.82 540.44 487.37 538.78 486.47C537.12 485.57 535.85 484.28 534.97 482.6C534.09 480.9 533.65 478.88 533.65 476.54C533.65 473.94 534.17 471.68 535.21 469.76C536.25 467.82 537.71 466.33 539.59 465.29C541.47 464.23 543.69 463.7 546.25 463.7C548.39 463.7 550.27 464.14 551.89 465.02C553.51 465.88 554.77 467.11 555.67 468.71C556.57 470.29 557.02 472.18 557.02 474.38ZM541.33 476.33C541.33 479.07 542.43 480.44 544.63 480.44C545.87 480.44 546.81 480.01 547.45 479.15C548.09 478.29 548.46 477.05 548.56 475.43L548.77 471.29C548.41 471.19 548 471.11 547.54 471.05C547.1 470.97 546.63 470.93 546.13 470.93C545.09 470.93 544.21 471.17 543.49 471.65C542.77 472.13 542.23 472.78 541.87 473.6C541.51 474.42 541.33 475.33 541.33 476.33ZM558.69 469.04H560.49L564.3 478.94C564.62 479.84 564.9 480.64 565.14 481.34C565.38 482.02 565.57 482.63 565.71 483.17H565.8C566.1 482.17 566.57 480.78 567.21 479L570.93 469.04H572.76L565.56 487.82C565.02 489.24 564.38 490.33 563.64 491.09C562.9 491.85 561.9 492.23 560.64 492.23C560.26 492.23 559.91 492.21 559.59 492.17C559.29 492.13 559.01 492.06 558.75 491.96V490.52C558.99 490.6 559.25 490.66 559.53 490.7C559.81 490.76 560.11 490.79 560.43 490.79C561.27 490.79 561.95 490.53 562.47 490.01C563.01 489.49 563.49 488.69 563.91 487.61L564.93 484.94L558.69 469.04ZM588.713 476.99C588.713 478.67 588.433 480.13 587.873 481.37C587.333 482.61 586.523 483.58 585.443 484.28C584.383 484.96 583.083 485.3 581.543 485.3C580.063 485.3 578.793 484.96 577.733 484.28C576.673 483.6 575.853 482.64 575.273 481.4C574.713 480.14 574.433 478.67 574.433 476.99C574.433 474.41 575.073 472.39 576.353 470.93C577.633 469.47 579.403 468.74 581.663 468.74C583.183 468.74 584.463 469.09 585.503 469.79C586.563 470.47 587.363 471.43 587.903 472.67C588.443 473.91 588.713 475.35 588.713 476.99ZM576.203 476.99C576.203 479.05 576.633 480.71 577.493 481.97C578.373 483.21 579.733 483.83 581.573 483.83C583.433 483.83 584.793 483.2 585.653 481.94C586.513 480.68 586.943 479.03 586.943 476.99C586.943 475.67 586.763 474.5 586.403 473.48C586.043 472.46 585.473 471.66 584.693 471.08C583.913 470.5 582.893 470.21 581.633 470.21C579.833 470.21 578.473 470.81 577.553 472.01C576.653 473.21 576.203 474.87 576.203 476.99ZM605.628 469.04V485H604.248L603.978 482.27H603.888C603.448 483.15 602.768 483.88 601.848 484.46C600.948 485.02 599.818 485.3 598.458 485.3C594.718 485.3 592.848 483.36 592.848 479.48V469.04H594.558V479.33C594.558 480.87 594.898 482.01 595.578 482.75C596.278 483.47 597.308 483.83 598.668 483.83C602.168 483.83 603.918 481.8 603.918 477.74V469.04H605.628ZM618.099 468.74C620.139 468.74 621.729 469.43 622.869 470.81C624.009 472.19 624.579 474.23 624.579 476.93C624.579 479.63 623.979 481.7 622.779 483.14C621.599 484.58 619.979 485.3 617.919 485.3C616.519 485.3 615.389 485 614.529 484.4C613.669 483.8 613.039 483.08 612.639 482.24H612.519C612.559 482.74 612.589 483.29 612.609 483.89C612.629 484.47 612.639 485.01 612.639 485.51V492.08H610.929V469.04H612.339L612.549 472.01H612.639C613.039 471.15 613.679 470.39 614.559 469.73C615.439 469.07 616.619 468.74 618.099 468.74ZM617.859 470.21C616.079 470.21 614.769 470.77 613.929 471.89C613.089 473.01 612.659 474.62 612.639 476.72V477.02C612.639 479.3 613.049 481.01 613.869 482.15C614.709 483.27 615.999 483.83 617.739 483.83C619.379 483.83 620.629 483.22 621.489 482C622.369 480.76 622.809 479.06 622.809 476.9C622.809 474.76 622.389 473.11 621.549 471.95C620.729 470.79 619.499 470.21 617.859 470.21ZM634.528 468.77C636.328 468.77 637.668 469.21 638.548 470.09C639.428 470.97 639.868 472.36 639.868 474.26V485H638.578L638.278 482.3H638.188C637.608 483.2 636.898 483.93 636.058 484.49C635.238 485.03 634.088 485.3 632.608 485.3C631.068 485.3 629.858 484.92 628.978 484.16C628.098 483.38 627.658 482.27 627.658 480.83C627.658 479.23 628.308 478.02 629.608 477.2C630.908 476.36 632.798 475.89 635.278 475.79L638.188 475.64V474.53C638.188 472.97 637.868 471.86 637.228 471.2C636.608 470.54 635.688 470.21 634.468 470.21C633.648 470.21 632.858 470.32 632.098 470.54C631.338 470.76 630.578 471.05 629.818 471.41L629.278 470.03C630.038 469.67 630.858 469.37 631.738 469.13C632.638 468.89 633.568 468.77 634.528 468.77ZM635.488 477.05C633.448 477.15 631.928 477.51 630.928 478.13C629.948 478.73 629.458 479.63 629.458 480.83C629.458 481.83 629.758 482.59 630.358 483.11C630.978 483.61 631.828 483.86 632.908 483.86C634.568 483.86 635.858 483.39 636.778 482.45C637.698 481.49 638.168 480.17 638.188 478.49V476.93L635.488 477.05ZM646.682 485H644.972V462.2H646.682V485ZM664.544 469.04V485H663.164L662.894 482.27H662.804C662.364 483.15 661.684 483.88 660.764 484.46C659.864 485.02 658.734 485.3 657.374 485.3C653.634 485.3 651.764 483.36 651.764 479.48V469.04H653.474V479.33C653.474 480.87 653.814 482.01 654.494 482.75C655.194 483.47 656.224 483.83 657.584 483.83C661.084 483.83 662.834 481.8 662.834 477.74V469.04H664.544Z" fill="#926259"/>
</svg>
