<svg width="32" height="32" viewBox="0 0 32 32" fill="none" xmlns="http://www.w3.org/2000/svg">
<rect width="32" height="32" fill="#F5A899"/>
<path d="M13.6 16.91H12.52V16.31H17.35C21.61 16.31 24.61 13.91 24.61 10.49C24.61 7.19 21.7 5 17.32 5H7.6V5.87L8.29 5.93C9.7 6.05 10.42 6.77 10.42 8.15V22.85C10.42 24.23 9.7 24.95 8.29 25.07L7.6 25.13V26H16.42V25.13L15.73 25.07C14.32 24.95 13.6 24.23 13.6 22.85V16.91ZM13.6 15.26V6.83H12.52V6.23H16.99C19.69 6.23 21.28 7.88 21.28 10.61C21.28 13.43 19.57 15.26 16.99 15.26H13.6Z" fill="white"/>
</svg>
